<?xml version="1.0" encoding="utf-8"?>
<!-- Generator: Adobe Illustrator 24.1.2, SVG Export Plug-In . SVG Version: 6.00 Build 0)  -->
<svg version="1.1" id="Layer_1" xmlns="http://www.w3.org/2000/svg" xmlns:xlink="http://www.w3.org/1999/xlink" x="0px" y="0px"
	 viewBox="0 0 31 31" style="enable-background:new 0 0 31 31;" xml:space="preserve">
<style type="text/css">
	.st0{fill:#161616;}
	.st1{fill:url(#SVGID_1_);}
	.st2{fill:url(#SVGID_2_);}
</style>
<rect class="st0" width="31" height="31"/>
<g>
	<linearGradient id="SVGID_1_" gradientUnits="userSpaceOnUse" x1="6.8056" y1="22.5672" x2="14.8728" y2="8.4808">
		<stop  offset="0.0675" style="stop-color:#F38020"/>
		<stop  offset="0.731" style="stop-color:#7F3F97"/>
		<stop  offset="1" style="stop-color:#4C56A6"/>
	</linearGradient>
	<path class="st1" d="M5,22.81l8.42-14.62h1.6v2.53c0,0.05-0.01,0.1-0.04,0.14c-0.04,0.06-0.08,0.13-0.1,0.19l-2.73,4.93
		c-0.3,0.54-0.59,1.09-0.9,1.63c-0.12,0.23-0.26,0.45-0.38,0.69l-2.54,4.51H5z"/>
	<linearGradient id="SVGID_2_" gradientUnits="userSpaceOnUse" x1="24.1233" y1="22.2675" x2="15.664" y2="8.4727">
		<stop  offset="0.0305" style="stop-color:#F38020"/>
		<stop  offset="0.7507" style="stop-color:#7F3F97"/>
		<stop  offset="1" style="stop-color:#4C56A4"/>
	</linearGradient>
	<polygon class="st2" points="26,22.81 22.7,22.81 22.42,22.34 15.86,11.17 15.61,10.75 15.61,8.19 17.25,8.19 	"/>
</g>
</svg>
