<svg width="24" height="24" viewBox="0 0 48 48" fill="none" xmlns="http://www.w3.org/2000/svg">
<g clip-path="url(#clip0_2567_451)">
<path d="M40.0001 17.3701V8.00012H30.6301L24.0001 1.37012L17.3701 8.00012H8.00012V17.3701L1.37012 24.0001L8.00012 30.6301V40.0001H17.3701L24.0001 46.6301L30.6301 40.0001H40.0001V30.6301L46.6301 24.0001L40.0001 17.3701ZM24.0001 36.0001C17.3701 36.0001 12.0001 30.6301 12.0001 24.0001C12.0001 17.3701 17.3701 12.0001 24.0001 12.0001C30.6301 12.0001 36.0001 17.3701 36.0001 24.0001C36.0001 30.6301 30.6301 36.0001 24.0001 36.0001ZM24.0001 16.0001C19.5801 16.0001 16.0001 19.5801 16.0001 24.0001C16.0001 28.4201 19.5801 32.0001 24.0001 32.0001C28.4201 32.0001 32.0001 28.4201 32.0001 24.0001C32.0001 19.5801 28.4201 16.0001 24.0001 16.0001Z" fill="black"/>
</g>
<defs>
<clipPath id="clip0_2567_451">
<rect width="48" height="48" fill="white"/>
</clipPath>
</defs>
</svg>
